<?xml version="1.0" standalone="no"?>
<!DOCTYPE svg PUBLIC "-//W3C//DTD SVG 20010904//EN"
 "http://www.w3.org/TR/2001/REC-SVG-20010904/DTD/svg10.dtd">
<svg version="1.0" xmlns="http://www.w3.org/2000/svg"
  width="16.000000pt" height="14.000000pt" viewBox="0 0 512.000000 512.000000"
>

<g transform="translate(0.000000,512.000000) scale(0.100000,-0.100000)"
>
<path d="M641 5104 c-175 -47 -305 -193 -331 -370 -13 -95 -13 -4244 0 -4338
20 -133 112 -266 229 -329 142 -78 332 -68 466 24 72 48 2089 2083 2135 2152
124 189 123 454 -1 648 -30 46 -333 356 -1082 1106 -928 929 -1046 1045 -1101
1071 -106 52 -211 64 -315 36z"/>
<path d="M4147 5109 c-189 -39 -356 -191 -418 -381 l-24 -73 0 -2095 0 -2095
24 -73 c55 -169 184 -301 357 -364 48 -18 81 -22 174 -22 93 0 126 4 174 22
173 63 302 195 357 364 l24 73 0 2095 0 2095 -24 73 c-55 170 -187 303 -357
363 -68 24 -213 33 -287 18z"/>
</g>
</svg>
