<?xml version="1.0" standalone="no"?>
<!DOCTYPE svg PUBLIC "-//W3C//DTD SVG 20010904//EN"
 "http://www.w3.org/TR/2001/REC-SVG-20010904/DTD/svg10.dtd">
<svg version="1.0" xmlns="http://www.w3.org/2000/svg"
 width="16.000000pt" height="16.000000pt" viewBox="0 0 512.000000 512.000000"
 >

<g transform="translate(0.000000,512.000000) scale(0.100000,-0.100000)"
>
<path d="M1161 4784 c-169 -45 -301 -180 -346 -351 -23 -86 -23 -3660 0 -3746
45 -173 178 -307 350 -352 86 -22 624 -22 710 0 172 45 305 179 350 352 13 50
15 296 15 1873 0 1598 -2 1823 -15 1875 -45 172 -179 305 -352 350 -81 21
-633 20 -712 -1z"/>
<path d="M3241 4784 c-169 -45 -301 -180 -346 -351 -23 -86 -23 -3660 0 -3746
45 -173 178 -307 350 -352 86 -22 624 -22 710 0 172 45 305 179 350 352 13 50
15 296 15 1873 0 1598 -2 1823 -15 1875 -45 172 -179 305 -352 350 -81 21
-633 20 -712 -1z"/>
</g>
</svg>
